<mxfile modified="2023-01-10T02:59:22.217Z" host="Electron" agent="5.0 (Windows NT 10.0; Win64; x64) AppleWebKit/537.36 (KHTML, like Gecko) draw.io/20.3.0 Chrome/104.0.5112.114 Electron/20.1.3 Safari/537.36" etag="EfIsrYLpp7RIhf6gR1Yn" compressed="false" version="20.3.0" type="device">
  <diagram id="IiXE35u0ofoM4zR3cXJT" name="Testing/Approaches">
    <mxGraphModel dx="782" dy="515" grid="1" gridSize="10" guides="1" tooltips="1" connect="1" arrows="1" fold="1" page="1" pageScale="1" pageWidth="827" pageHeight="1169" math="0" shadow="0">
      <root>
        <mxCell id="YPutv9VMo4PwF8Lt4f-L-0" />
        <mxCell id="YPutv9VMo4PwF8Lt4f-L-1" value="Boxes" parent="YPutv9VMo4PwF8Lt4f-L-0" />
        <UserObject label="Happy Path" link="https://en.wikipedia.org/wiki/Happy_path" id="YPutv9VMo4PwF8Lt4f-L-2">
          <mxCell style="rounded=0;whiteSpace=wrap;html=1;strokeColor=#666666;strokeWidth=1;fillColor=none;fontSize=12;fontColor=#333333;align=center;movable=1;resizable=1;rotatable=1;deletable=1;editable=1;connectable=1;" parent="YPutv9VMo4PwF8Lt4f-L-1" vertex="1">
            <mxGeometry x="120" y="200" width="80" height="40" as="geometry" />
          </mxCell>
        </UserObject>
        <UserObject label="Unhappy Path" link="https://en.wikipedia.org/wiki/Happy_path" id="YPutv9VMo4PwF8Lt4f-L-4">
          <mxCell style="rounded=0;whiteSpace=wrap;html=1;strokeColor=#666666;strokeWidth=1;fillColor=none;fontSize=12;fontColor=#333333;align=center;" parent="YPutv9VMo4PwF8Lt4f-L-1" vertex="1">
            <mxGeometry x="240" y="200" width="80" height="40" as="geometry" />
          </mxCell>
        </UserObject>
        <mxCell id="8Rc-HRjRU10CLpBGY49o-0" value="About" parent="YPutv9VMo4PwF8Lt4f-L-0" />
        <mxCell id="8Rc-HRjRU10CLpBGY49o-1" value="Title/Page" parent="YPutv9VMo4PwF8Lt4f-L-0" visible="0" />
        <mxCell id="rbZQCm-Wg0ZwITYTyjrI-0" value="" style="group;fontSize=10;" parent="8Rc-HRjRU10CLpBGY49o-1" connectable="0" vertex="1">
          <mxGeometry x="120" y="120" width="560" height="45" as="geometry" />
        </mxCell>
        <mxCell id="rbZQCm-Wg0ZwITYTyjrI-1" value="&lt;font style=&quot;font-size: 12px&quot;&gt;Base Logical Module - Testing - Testing Approaches&lt;/font&gt;" style="text;strokeColor=none;fillColor=none;html=1;fontSize=24;fontStyle=1;verticalAlign=middle;align=left;shadow=0;glass=0;comic=0;opacity=30;fontColor=#808080;" parent="rbZQCm-Wg0ZwITYTyjrI-0" vertex="1">
          <mxGeometry width="560" height="40" as="geometry" />
        </mxCell>
        <mxCell id="rbZQCm-Wg0ZwITYTyjrI-2" value="" style="line;strokeWidth=2;html=1;shadow=0;glass=0;comic=0;fillColor=none;fontSize=10;fontColor=#CCCCCC;labelBackgroundColor=none;strokeColor=#CCCCCC;" parent="rbZQCm-Wg0ZwITYTyjrI-0" vertex="1">
          <mxGeometry y="35" width="560" height="10" as="geometry" />
        </mxCell>
        <mxCell id="8Rc-HRjRU10CLpBGY49o-2" value="Title/Diagram" parent="YPutv9VMo4PwF8Lt4f-L-0" visible="0" />
        <mxCell id="8Rc-HRjRU10CLpBGY49o-3" value="&lt;font style=&quot;font-size: 12px&quot;&gt;Diagram: Base System Logical Module - Testing - Testing Approaches&lt;/font&gt;" style="text;strokeColor=none;fillColor=none;html=1;fontSize=24;fontStyle=2;verticalAlign=middle;align=left;shadow=0;glass=0;comic=0;opacity=30;fontColor=#808080;" parent="8Rc-HRjRU10CLpBGY49o-2" vertex="1">
          <mxGeometry x="120" y="330" width="520" height="40" as="geometry" />
        </mxCell>
      </root>
    </mxGraphModel>
  </diagram>
</mxfile>
